# Blender v2.79 (sub 0) OBJ File: ''
# www.blender.org
mtllib Avenues.mtl
o Avenues_CUpath3745
v -1.084826 -0.969993 0.497780
v -0.429432 0.466653 0.497780
v 0.046930 1.501132 0.497780
v 0.369031 0.798704 0.497780
v 1.157782 -0.972719 0.497780
v 0.820115 -0.971363 0.497780
v 0.051074 0.714750 0.497780
v 0.044717 0.717532 0.497780
v -0.714375 -0.972363 0.497780
v -1.085435 -0.970294 0.497780
v -1.084826 -0.969993 0.497780
v -1.084826 -0.969993 0.497780
v -1.084826 -0.969993 0.497780
v -1.084826 -0.969993 0.497780
v -1.084826 -0.969993 0.497780
v -1.084826 -0.969993 0.497780
v -1.084826 -0.969993 0.497780
v -1.084826 -0.969993 0.497780
v -1.084826 -0.969993 0.497780
v -1.084826 -0.969993 0.497780
v -1.084826 -0.969993 0.497780
v -1.094331 -1.248381 0.497780
v 1.167071 -1.248381 0.497780
v 1.167071 -1.333873 0.497780
v -1.094331 -1.333873 0.497780
v -1.084826 -0.969991 -0.502220
v -1.085519 -0.969947 -0.502220
v -0.429184 0.467482 -0.502220
v 0.046813 1.500894 -0.502220
v 0.368841 0.799441 -0.502220
v 1.157853 -0.972477 -0.502220
v 0.820192 -0.971577 -0.502220
v 0.050879 0.714685 -0.502220
v 0.045246 0.717960 -0.502220
v -0.714302 -0.972732 -0.502220
v -1.084826 -0.969991 -0.502220
v -1.084826 -0.969991 -0.502220
v -1.084826 -0.969991 -0.502220
v -1.084826 -0.969991 -0.502220
v -1.084826 -0.969991 -0.502220
v -1.084826 -0.969991 -0.502220
v -1.084826 -0.969991 -0.502220
v -1.084826 -0.969991 -0.502220
v -1.084826 -0.969991 -0.502220
v -1.084826 -0.969991 -0.502220
v -1.084826 -0.969991 -0.502220
v -1.094331 -1.248379 -0.502220
v 1.167071 -1.248379 -0.502220
v 1.167071 -1.333871 -0.502220
v -1.094331 -1.333871 -0.502220
vt 0.496094 1.000000
vt 0.496094 0.000000
vt 0.496094 0.000000
vt 0.003906 0.000000
vt 0.996094 1.000000
vt 0.503906 -0.000024
vt 0.996094 0.000000
vt 0.996094 0.000000
vt 0.503906 0.999976
vt 0.503906 -0.000024
vt 0.496094 1.000000
vt 0.496094 0.000000
vt 0.496094 0.000000
vt 0.996094 1.000000
vt 0.503906 -0.000024
vt 0.996094 0.000000
vt 0.996094 1.000000
vt 0.503906 -0.000024
vt 0.996094 0.000000
vt 0.496094 0.000000
vt 0.496094 0.000000
vt 0.496094 1.000000
vt 0.496094 0.000000
vt 0.496094 0.000000
vt 0.003906 0.000000
vt 0.996094 0.000000
vt 0.503906 0.999976
vt 0.503906 -0.000024
vt 0.996094 1.000000
vt 0.503906 -0.000024
vt 0.996094 0.000000
vt 0.996094 1.000000
vt 0.503906 0.999976
vt 0.503906 -0.000024
vt 0.003906 0.000000
vt 0.503906 0.999976
vt 0.496094 1.000000
vt 0.496094 1.000000
vt 0.496094 0.000000
vt 0.496094 0.636750
vt 0.996094 0.000000
vt 0.996094 1.000000
vt 0.503906 0.999976
vt 0.996094 1.000000
vt 0.503906 0.999976
vt 0.503906 -0.000024
vt 0.503906 0.999976
vt 0.503906 0.999976
vt 0.996094 0.000000
vt 0.496094 0.000000
vt 0.996094 0.000000
vt 0.996094 1.000000
vt 0.503906 0.999976
vt 0.996094 1.000000
vt 0.996094 0.000000
vt 0.503906 0.999976
vt 0.496094 0.000000
vt 0.003906 0.000000
vt 0.496094 1.000000
vt 0.503906 -0.000024
vt 0.321950 0.000000
vt 0.996094 0.000000
vt 0.996094 1.000000
vt 0.503906 0.999976
vt 0.003906 0.000000
vt 0.503906 0.999976
vt 0.996094 0.000000
vt 0.996094 1.000000
vt 0.503906 -0.000024
vt 0.496094 0.862644
vt 0.003906 0.000000
vt 0.503906 -0.000024
vt 0.503906 0.999976
vt 0.503906 -0.000024
vt 0.996094 0.000000
vt 0.503906 -0.000024
vt 0.996094 1.000000
vt 0.996094 1.000000
vn 0.0000 0.0000 1.0000
vn -1.0000 0.0000 0.0000
vn 0.0000 1.0000 0.0000
vn 0.0000 0.0000 -1.0000
vn 0.0000 -1.0000 -0.0000
vn -0.0075 -1.0000 -0.0003
vn 0.9135 0.4068 0.0002
vn -0.9083 0.4184 0.0000
vn -0.9098 -0.4150 0.0000
vn -0.9083 0.4183 0.0001
vn -0.5026 -0.8645 0.0002
vn -0.9097 0.4153 0.0002
vn -0.0056 -1.0000 0.0004
vn -0.9097 0.4154 0.0001
vn 0.9122 -0.4098 0.0003
vn -0.9098 -0.4151 0.0002
vn 0.9122 -0.4098 0.0002
vn 0.9088 0.4172 -0.0002
vn 1.0000 0.0000 0.0000
vn 0.9090 0.4168 0.0001
vn -0.4008 -0.9162 -0.0006
vn -0.0040 -1.0000 0.0002
vn -0.0027 -1.0000 -0.0002
vn 0.9135 0.4068 0.0001
usemtl avenues
s off
f 22/1/1 24/2/1 23/3/1
f 22/1/1 25/4/1 24/2/1
f 50/5/2 22/6/2 47/7/2
f 48/8/3 22/9/3 23/10/3
f 49/11/4 47/12/4 48/13/4
f 49/14/5 25/15/5 50/16/5
f 35/17/6 10/18/6 27/19/6
f 5/20/1 4/21/1 6/22/1
f 30/23/4 31/24/4 32/25/4
f 31/26/7 4/27/7 5/28/7
f 28/29/8 3/30/8 29/31/8
f 32/32/9 6/33/9 7/34/9
f 32/25/4 33/35/4 30/23/4
f 28/29/10 2/36/10 3/30/10
f 2/37/1 10/38/1 9/39/1
f 9/39/1 8/40/1 2/37/1
f 34/41/11 33/42/11 7/43/11
f 27/44/12 10/45/12 2/46/12
f 35/17/13 9/47/13 10/18/13
f 50/5/2 25/48/2 22/6/2
f 27/44/14 2/46/14 28/49/14
f 30/23/4 33/35/4 34/50/4
f 35/51/15 34/52/15 8/53/15
f 48/8/3 47/54/3 22/9/3
f 32/32/16 7/34/16 33/55/16
f 49/14/5 24/56/5 25/15/5
f 34/50/4 35/57/4 28/58/4
f 7/59/1 6/22/1 4/21/1
f 35/51/17 8/53/17 9/60/17
f 29/61/4 30/23/4 34/50/4
f 30/62/18 29/63/18 3/64/18
f 49/11/4 50/65/4 47/12/4
f 7/59/1 4/21/1 8/40/1
f 23/66/19 49/67/19 48/68/19
f 30/62/20 3/64/20 4/69/20
f 3/70/1 2/37/1 8/40/1
f 27/71/4 28/58/4 35/57/4
f 4/21/1 3/70/1 8/40/1
f 34/41/21 7/43/21 8/72/21
f 28/58/4 29/61/4 34/50/4
f 5/73/22 6/74/22 32/75/22
f 23/66/19 24/76/19 49/67/19
f 5/73/23 32/75/23 31/77/23
f 31/26/24 30/78/24 4/27/24
l 20 45
l 11 36
l 21 46
l 16 41
l 1 26
l 17 42
l 12 37
l 13 38
l 18 43
l 19 44
l 14 39
l 15 40
